# AST/ASF file generated using VICON BodyLanguage
# -----------------------------------------------
:version 1.10
:name VICON
:units
  mass 1.0
  length 0.45
  angle deg
:documentation
   .ast/.asf automatically generated from VICON data using
   VICON BodyBuilder and BodyLanguage model FoxedUp or BRILLIANT.MOD
:root
   order TX TY TZ RX RY RZ
   axis XYZ
   position 0 0 0  
   orientation 0 0 0 
:bonedata
  begin
     id 1 
     name lhipjoint
     direction 0.624716 -0.669793 0.401383 
     length 2.38238 
     axis 0 0 0  XYZ
  end
  begin
     id 2 
     name lfemur
     direction 0.34202 -0.939693 0  
     length 6.4574  
     axis 0 0 20  XYZ
    dof rx ry rz
    limits (-160.0 20.0)
           (-70.0 70.0)
           (-60.0 70.0)
  end
  begin
     id 3 
     name ltibia
     direction 0.34202 -0.939693 0   
     length 7.68739   
     axis 0 0 20   XYZ
    dof rx
    limits (-10.0 170.0)
  end
  begin
     id 4 
     name lfoot
     direction 0.0681309 -0.187188 0.979959   
     length 2.46615   
     axis -90 7.62852e-016 20   XYZ
    dof rx rz
    limits (-45.0 90.0)
           (-70.0 20.0)
  end
  begin
     id 5 
     name ltoes
     direction 1.53566e-011 -4.21819e-011 1   
     length 1.2376   
     axis -90 7.62852e-016 20   XYZ
    dof rx
    limits (-90.0 20.0)
  end
  begin
     id 6 
     name rhipjoint
     direction -0.644473 -0.655875 0.393043   
     length 2.43293  
     axis 0 0 0  XYZ 
  end
  begin
     id 7 
     name rfemur
     direction -0.34202 -0.939693 0   
     length 6.7025   
     axis 0 0 -20   XYZ
    dof rx ry rz
    limits (-160.0 20.0)
           (-70.0 70.0)
           (-70.0 60.0)
  end
  begin
     id 8 
     name rtibia
     direction -0.34202 -0.939693 0   
     length 7.80547   
     axis 0 0 -20   XYZ
    dof rx
    limits (-10.0 170.0)
 end
 begin
     id 9 
     name rfoot
     direction -0.0756734 -0.207911 0.975216   
     length 2.40315  
     axis -90 -7.62852e-016 -20   XYZ
    dof rx rz
    limits (-45.0 90.0)
           (-20.0 70.0)
  end
  begin
     id 10 
     name rtoes
     direction -1.5353e-011 -4.21879e-011 1   
     length 1.20477   
     axis -90 -7.62852e-016 -20   XYZ
    dof rx
    limits (-90.0 20.0)
  end
  begin
     id 11 
     name lowerback
     direction 0.0160353 0.987463 -0.157037   
     length 2.18572   
     axis 0 0 0   XYZ
    dof rx ry rz
    limits (-20.0 45.0)
           (-30.0 30.0)
           (-30.0 30.0)
  end
  begin
     id 12 
     name upperback
     direction -0.00499661 0.999756 0.0215076   
     length 2.18016   
     axis 0 0 0   XYZ
    dof rx ry rz
    limits (-20.0 45.0)
           (-30.0 30.0)
           (-30.0 30.0)
  end
  begin
     id 13 
     name thorax
     direction -0.00921346 0.995333 0.0960619   
     length 2.24923   
     axis 0 0 0   XYZ
    dof rx ry rz
    limits (-20.0 45.0)
           (-30.0 30.0)
           (-30.0 30.0)
  end
  begin
     id 14 
     name lowerneck
     direction 0.0274184 0.991181 0.12965   
     length 1.70911   
     axis 0 0 0   XYZ
    dof rx ry rz
    limits (-20.0 45.0)
           (-30.0 30.0)
           (-30.0 30.0)
  end
  begin
     id 15 
     name upperneck
     direction 0.0015627 0.999959 -0.00893559   
     length 1.69312   
     axis 0 0 0   XYZ
    dof rx ry rz
    limits (-20.0 45.0)
           (-30.0 30.0)
           (-30.0 30.0)
  end
  begin
     id 16
     name head
     direction -0.00230242 0.999856 -0.0168327  
     length 1.80241  
     axis 0 0 0   XYZ
    dof rx ry rz
    limits (-20.0 45.0)
           (-30.0 30.0)
           (-30.0 30.0)
  end
  begin
     id 17 
     name lclavicle
     direction 0.955523 0.290741 -0.0494489  
     length 3.84275  
     axis 0 0 0   XYZ
    dof ry rz
    limits (-20.0 10.0)
           (0.0 20.0)
  end
  begin
     id 18 
     name lhumerus
     direction 1 -4.48967e-011 -3.18382e-028   
     length 5.17714   
     axis 180 -30 -90   XYZ
    dof rx ry rz
    limits (-60.0 90.0)
           (-90.0 90.0)
           (-90.0 90.0)
  end
  begin
     id 19
     name lradius
     direction 1 -4.48968e-011 -2.22911e-027   
     length 3.43679   
     axis 180 -30 -90   XYZ
    dof rx
    limits (-10.0 170.0)
  end
  begin
     id 20
     name lwrist
     direction 1 -4.48951e-011 -6.32245e-027   
     length 1.7184   
     axis 3.57107e-015 90 90   XYZ
    dof ry
    limits (-180.0 0.0)
 end
  begin
     id 21 
     name lhand
     direction 1 -4.48924e-011 -1.26431e-026   
     length 0.573117   
     axis 8.06912e-015 90 90   XYZ
    dof rx rz
    limits (-90.0 90.0)
           (-45.0 45.0)
  end
  begin
     id 22 
     name lfingers
     direction 1 -4.49001e-011 -2.52965e-026   
     length 0.462062   
     axis 1.61381e-014 90 90   XYZ
    dof rx
    limits (0.0 90.0)
  end
  begin
     id 23
     name lthumb
     direction 0.707107 -6.35008e-011 0.707107   
     length 0.663431   
     axis -90 45 -1.62303e-014   XYZ
    dof rx rz
    limits (-45.0 45.0)
           (-45.0 45.0)
  end
  begin
     id 24 
     name rclavicle
     direction -0.963917 0.256881 -0.0698287   
     length 3.73057  
     axis 0 0 0   XYZ 
    dof ry rz
    limits (-10.0 20.0)
           (-20.0 0.0)
  end
  begin
     id 25 
     name rhumerus
     direction -1 -4.48962e-011 -2.73982e-027  
     length 5.23908   
     axis 180 30 90   XYZ
    dof rx ry rz
    limits (-90.0 60.0)
           (-90.0 90.0)
           (-90.0 90.0)
  end
  begin
     id 26 
     name rradius
     direction -1 -4.48968e-011 -4.33218e-027   
     length 3.46485   
     axis 180 30 90   XYZ
    dof rx
    limits (-10.0 170.0)
  end
  begin
     id 27 
     name rwrist
     direction -1 -4.48989e-011 -6.32372e-027   
     length 1.73243   
     axis 3.57107e-015 -90 -90   XYZ
    dof ry
    limits (-180.0 0.0)
  end
  begin
     id 28
     name rhand
     direction -1 -4.48948e-011 -1.26448e-026   
     length 0.608752   
     axis 8.06912e-015 -90 -90   XYZ
    dof rx rz
    limits (-90.0 90.0)
           (-45.0 45.0)
  end
  begin
     id 29
     name rfingers
     direction -1 -4.48962e-011 -2.52913e-026   
     length 0.490792   
     axis 1.61381e-014 -90 -90   XYZ
    dof rx
    limits (0.0 90.0)
  end
  begin
     id 30
     name rthumb
     direction -0.707107 -6.34878e-011 0.707107   
     length 0.704682   
     axis -90 -45 1.62303e-014   XYZ
    dof rx rz
    limits (-45.0 45.0)
           (-45.0 45.0)
  end
:hierarchy
  begin
    root lhipjoint rhipjoint lowerback
    lhipjoint lfemur
    lfemur ltibia
    ltibia lfoot
    lfoot ltoes
    rhipjoint rfemur
    rfemur rtibia
    rtibia rfoot
    rfoot rtoes
    lowerback upperback
    upperback thorax
    thorax lowerneck lclavicle rclavicle
    lowerneck upperneck
    upperneck head
    lclavicle lhumerus
    lhumerus lradius
    lradius lwrist
    lwrist lhand lthumb
    lhand lfingers
    rclavicle rhumerus
    rhumerus rradius
    rradius rwrist
    rwrist rhand rthumb
    rhand rfingers
  end

#!OML:ASF G:\JayActor3\Patient Classification 1\Patient 1\Session 6\male.ASF
:FULLY-SPECIFIED
:DEGREES
247
root 49.4003 14.487 18.262 190.091 -35.9435 -186.524
lowerback 24.1056 1.27269 -10.0875
upperback 7.32506 -2.2552 -3.61198
thorax -5.1196 -1.61271 2.46845
lowerneck 0.327542 1.46453 5.31336
upperneck 9.11347 1.70672 -1.78136
head 2.93655 0.863455 -1.46303
rclavicle 3.81667e-014 4.92986e-014
rhumerus -37.8877 10.3366 -90.3958
rradius 130.401
rwrist 14.8255
rhand 22.6812 -18.1786
rfingers 7.12502
rthumb 47.0242 -40.8341
lclavicle 3.81667e-014 4.92986e-014
lhumerus -39.3763 -8.04052 86.463
lradius 136.762
lwrist 3.76838
lhand 8.32957 39.0872
lfingers 7.12502
lthumb 33.5403 65.9718
rfemur -63.2277 -13.4928 12.6714
rtibia 93.5207
rfoot -18.1505 -6.36937
rtoes -10.3079
lfemur -35.5792 13.1266 -32.7789
ltibia 59.4438
lfoot -30.2466 13.487
ltoes -4.63611
248
root 49.384 14.4851 18.2562 190.053 -35.926 -186.579
lowerback 24.1895 1.27166 -10.1855
upperback 7.34408 -2.30565 -3.66427
thorax -5.13379 -1.64152 2.48165
lowerneck 0.427318 1.4936 5.35767
upperneck 9.26006 1.74354 -1.84304
head 2.97155 0.879026 -1.49146
rclavicle 6.83819e-014 3.97569e-015
rhumerus -37.8621 10.382 -90.3729
rradius 130.336
rwrist 14.845
rhand 22.7236 -18.1849
rfingers 7.12502
rthumb 47.0634 -40.8232
lclavicle 6.83819e-014 3.97569e-015
lhumerus -39.2836 -8.00073 86.343
lradius 136.691
lwrist 3.80742
lhand 8.32122 39.0834
lfingers 7.12502
lthumb 33.5324 65.9698
rfemur -64.15 -13.8064 12.8382
rtibia 94.513
rfoot -18.5931 -6.43821
rtoes -11.1481
lfemur -35.4195 13.1925 -32.8491
ltibia 59.4217
lfoot -30.3085 13.5328
ltoes -4.78507
249
root 49.3676 14.484 18.2487 190.022 -35.9132 -186.646
lowerback 24.2647 1.27181 -10.3014
upperback 7.36311 -2.35739 -3.71337
thorax -5.14227 -1.6712 2.50848
lowerneck 0.566465 1.52135 5.38401
upperneck 9.37268 1.7803 -1.88833
head 2.98713 0.89428 -1.51117
rclavicle -8.66701e-014 5.48646e-014
rhumerus -37.834 10.4207 -90.3454
rradius 130.275
rwrist 14.8631
rhand 22.7614 -18.1897
rfingers 7.12502
rthumb 47.0983 -40.8125
lclavicle -8.66701e-014 5.48646e-014
lhumerus -39.152 -7.95278 86.1643
lradius 136.603
lwrist 3.90228
lhand 8.33008 39.0909
lfingers 7.12502
lthumb 33.5408 65.9754
rfemur -65.0651 -14.1109 13.0126
rtibia 95.4555
rfoot -18.996 -6.49154
rtoes -11.915
lfemur -35.2431 13.2118 -32.9194
ltibia 59.3864
lfoot -30.3777 13.6022
ltoes -4.89654
250
root 49.3509 14.483 18.2399 190 -35.906 -186.721
lowerback 24.3298 1.27044 -10.4181
upperback 7.38055 -2.40972 -3.76349
thorax -5.14723 -1.70105 2.53456
lowerneck 0.728265 1.54649 5.4052
upperneck 9.46546 1.81462 -1.92718
head 2.99149 0.908235 -1.52784
rclavicle 8.50798e-014 -4.29375e-014
rhumerus -37.8124 10.4459 -90.3131
rradius 130.226
rwrist 14.87
rhand 22.7887 -18.2004
rfingers 7.12502
rthumb 47.1235 -40.812
lclavicle 8.50798e-014 -4.29375e-014
lhumerus -38.979 -7.90554 85.9121
lradius 136.5
lwrist 4.07249
lhand 8.36255 39.1088
lfingers 7.12502
lthumb 33.5717 65.9866
rfemur -65.9839 -14.4053 13.1956
rtibia 96.3492
rfoot -19.3544 -6.52619
rtoes -12.631
lfemur -35.0595 13.1841 -32.9931
ltibia 59.3423
lfoot -30.4458 13.7205
ltoes -5.03222
251
root 49.3335 14.4822 18.2301 189.978 -35.9079 -186.791
lowerback 24.3828 1.26377 -10.5191
upperback 7.40068 -2.4626 -3.81127
thorax -5.14355 -1.73145 2.55414
lowerneck 0.895798 1.57039 5.43047
upperneck 9.55074 1.8481 -1.97166
head 2.99243 0.921718 -1.54714
rclavicle -9.54166e-014 2.78299e-014
rhumerus -37.7879 10.4575 -90.2765
rradius 130.184
rwrist 14.8668
rhand 22.8112 -18.2099
rfingers 7.12502
rthumb 47.1443 -40.8123
lclavicle -9.54166e-014 2.78299e-014
lhumerus -38.788 -7.86414 85.642
lradius 136.396
lwrist 4.26679
lhand 8.39837 39.1327
lfingers 7.12502
lthumb 33.6057 66.0032
rfemur -66.9021 -14.6877 13.3971
rtibia 97.1895
rfoot -19.6674 -6.52967
rtoes -13.28
lfemur -34.8716 13.1135 -33.061
ltibia 59.2948
lfoot -30.5049 13.896
ltoes -5.19117
252
root 49.3152 14.4813 18.2198 189.939 -35.9118 -186.838
lowerback 24.4328 1.25267 -10.5877
upperback 7.42239 -2.51197 -3.85503
thorax -5.13827 -1.75998 2.55907
lowerneck 1.03479 1.59263 5.48096
upperneck 9.66244 1.87889 -2.04246
head 3.00863 0.933966 -1.57992
rclavicle 1.02573e-013 -9.06458e-014
rhumerus -37.7616 10.4582 -90.2359
rradius 130.149
rwrist 14.8643
rhand 22.8135 -18.2126
rfingers 7.12502
rthumb 47.1465 -40.814
lclavicle 1.02573e-013 -9.06458e-014
lhumerus -38.6004 -7.8348 85.396
lradius 136.295
lwrist 4.45115
lhand 8.43831 39.1598
lfingers 7.12502
lthumb 33.6437 66.022
rfemur -67.8135 -14.9467 13.6265
rtibia 97.974
rfoot -19.9372 -6.49925
rtoes -13.8572
lfemur -34.6763 13.0156 -33.1097
ltibia 59.2479
lfoot -30.5621 14.1043
ltoes -5.33862
253
root 49.2958 14.4803 18.2086 189.881 -35.9117 -186.863
lowerback 24.4732 1.23823 -10.6226
upperback 7.44965 -2.55555 -3.89752
thorax -5.12433 -1.78627 2.5446
lowerneck 1.16324 1.6134 5.53423
upperneck 9.78186 1.90728 -2.11681
head 3.02955 0.944989 -1.61455
rclavicle -4.05521e-014 -5.56597e-014
rhumerus -37.7239 10.4525 -90.1959
rradius 130.12
rwrist 14.8655
rhand 22.8016 -18.2151
rfingers 7.12502
rthumb 47.1354 -40.8214
lclavicle -4.05521e-014 -5.56597e-014
lhumerus -38.4411 -7.82741 85.2146
lradius 136.212
lwrist 4.58165
lhand 8.45238 39.1804
lfingers 7.12502
lthumb 33.657 66.0396
rfemur -68.7168 -15.1755 13.8796
rtibia 98.7018
rfoot -20.1598 -6.4479
rtoes -14.4251
lfemur -34.4735 12.9059 -33.1408
ltibia 59.2028
lfoot -30.6225 14.3186
ltoes -5.43935
254
root 49.2755 14.4795 18.1965 189.8 -35.9021 -186.874
lowerback 24.5196 1.22699 -10.6466
upperback 7.47987 -2.59264 -3.93241
thorax -5.11094 -1.80962 2.53076
lowerneck 1.27001 1.63441 5.59115
upperneck 9.92504 1.93561 -2.20882
head 3.06314 0.955522 -1.65594
rclavicle 1.03368e-013 4.92986e-014
rhumerus -37.6794 10.4521 -90.149
rradius 130.093
rwrist 14.8745
rhand 22.7698 -18.2012
rfingers 7.12502
rthumb 47.1061 -40.8206
lclavicle 1.03368e-013 4.92986e-014
lhumerus -38.3233 -7.83289 85.1159
lradius 136.149
lwrist 4.65736
lhand 8.43727 39.1824
lfingers 7.12502
lthumb 33.6427 66.0447
rfemur -69.5937 -15.3681 14.1449
rtibia 99.3692
rfoot -20.3472 -6.386
rtoes -14.9805
lfemur -34.2422 12.7879 -33.1535
ltibia 59.1512
lfoot -30.7113 14.4997
ltoes -5.41382
255
root 49.2545 14.4791 18.1828 189.704 -35.8738 -186.878
lowerback 24.5591 1.22276 -10.6681
upperback 7.51486 -2.61931 -3.96553
thorax -5.09006 -1.8288 2.51435
lowerneck 1.38268 1.65667 5.63445
upperneck 10.0617 1.96546 -2.29068
head 3.09314 0.96654 -1.69154
rclavicle 2.94201e-014 -5.24792e-014
rhumerus -37.6227 10.4536 -90.1058
rradius 130.067
rwrist 14.8895
rhand 22.7278 -18.1753
rfingers 7.12502
rthumb 47.0672 -40.8119
lclavicle 2.94201e-014 -5.24792e-014
lhumerus -38.251 -7.85259 85.0957
lradius 136.108
lwrist 4.66549
lhand 8.4006 39.1627
lfingers 7.12502
lthumb 33.6078 66.0327
rfemur -70.4488 -15.5137 14.4172
rtibia 99.9761
rfoot -20.5071 -6.33311
rtoes -15.5543
lfemur -33.9887 12.6769 -33.1569
ltibia 59.091
lfoot -30.8177 14.658
ltoes -5.33266
256
root 49.2329 14.4795 18.1674 189.61 -35.8274 -186.9
lowerback 24.5943 1.22743 -10.7101
upperback 7.55007 -2.63956 -3.99939
thorax -5.06644 -1.84537 2.50661
lowerneck 1.48988 1.68051 5.67597
upperneck 10.2072 1.99703 -2.37591
head 3.12742 0.978104 -1.72807
rclavicle -2.94201e-014 5.725e-014
rhumerus -37.5649 10.4637 -90.0651
rradius 130.043
rwrist 14.9081
rhand 22.6678 -18.1444
rfingers 7.12502
rthumb 47.0118 -40.8055
lclavicle -2.94201e-014 5.725e-014
lhumerus -38.1892 -7.86851 85.0793
lradius 136.071
lwrist 4.68544
lhand 8.35119 39.1331
lfingers 7.12502
lthumb 33.5609 66.0133
rfemur -71.282 -15.621 14.674
rtibia 100.521
rfoot -20.6546 -6.27918
rtoes -16.0851
lfemur -33.7072 12.5704 -33.1753
ltibia 59.0126
lfoot -30.9245 14.849
ltoes -5.32539
257
root 49.211 14.4805 18.1505 189.517 -35.7676 -186.937
lowerback 24.6237 1.23959 -10.7704
upperback 7.5875 -2.65438 -4.03312
thorax -5.03712 -1.86009 2.50743
lowerneck 1.59625 1.70554 5.71761
upperneck 10.3551 2.03032 -2.46525
head 3.16301 0.990284 -1.76608
rclavicle -1.90833e-014 8.26944e-014
rhumerus -37.5013 10.4801 -90.028
rradius 130.018
rwrist 14.9255
rhand 22.6036 -18.1212
rfingers 7.12502
rthumb 46.9523 -40.8084
lclavicle -1.90833e-014 8.26944e-014
lhumerus -38.131 -7.87949 85.0616
lradius 136.037
lwrist 4.71713
lhand 8.30507 39.1098
lfingers 7.12502
lthumb 33.517 65.9995
rfemur -72.0917 -15.693 14.9176
rtibia 101.006
rfoot -20.7987 -6.2384
rtoes -16.5955
lfemur -33.3998 12.4664 -33.2022
ltibia 58.9161
lfoot -31.0391 15.043
ltoes -5.31535
258
root 49.1885 14.4823 18.1321 189.424 -35.6946 -186.991
lowerback 24.653 1.25824 -10.8487
upperback 7.6236 -2.66561 -4.06591
thorax -5.00857 -1.87325 2.51833
lowerneck 1.7191 1.73329 5.74668
upperneck 10.4914 2.06778 -2.54821
head 3.19148 1.00413 -1.79963
rclavicle 2.94201e-014 6.99722e-014
rhumerus -37.4328 10.5093 -89.9902
rradius 129.994
rwrist 14.9386
rhand 22.5441 -18.1048
rfingers 7.12502
rthumb 46.8973 -40.8161
lclavicle 2.94201e-014 6.99722e-014
lhumerus -38.0815 -7.87839 85.0443
lradius 136.004
lwrist 4.75157
lhand 8.28068 39.0877
lfingers 7.12502
lthumb 33.4939 65.9824
rfemur -72.874 -15.7334 15.1456
rtibia 101.427
rfoot -20.947 -6.22128
rtoes -17.0904
lfemur -33.0643 12.3728 -33.2464
ltibia 58.8002
lfoot -31.1333 15.3023
ltoes -5.45327
259
root 49.1652 14.4847 18.1123 189.325 -35.616 -187.053
lowerback 24.6806 1.27963 -10.9309
upperback 7.6623 -2.67437 -4.09812
thorax -4.97629 -1.8858 2.53121
lowerneck 1.85356 1.76416 5.77518
upperneck 10.6191 2.11018 -2.63279
head 3.21523 1.02026 -1.83356
rclavicle -1.21656e-013 6.52014e-014
rhumerus -37.3565 10.5442 -89.9534
rradius 129.97
rwrist 14.9472
rhand 22.5032 -18.0896
rfingers 7.12502
rthumb 46.8595 -40.8175
lclavicle -1.21656e-013 6.52014e-014
lhumerus -38.0371 -7.8689 85.0255
lradius 135.97
lwrist 4.78293
lhand 8.28512 39.075
lfingers 7.12502
lthumb 33.4981 65.9688
rfemur -73.6201 -15.7462 15.3638
rtibia 101.784
rfoot -21.1033 -6.24105
rtoes -17.5826
lfemur -32.7015 12.2854 -33.2963
ltibia 58.6686
lfoot -31.215 15.5931
ltoes -5.6277
260
root 49.1409 14.4874 18.0911 189.214 -35.5305 -187.12
lowerback 24.7118 1.30407 -11.0117
upperback 7.70186 -2.67962 -4.12875
thorax -4.94524 -1.89685 2.54411
lowerneck 1.98169 1.79627 5.82167
upperneck 10.7583 2.1549 -2.73769
head 3.24521 1.03742 -1.87772
rclavicle 3.65764e-014 -4.6118e-014
rhumerus -37.2779 10.5832 -89.9149
rradius 129.945
rwrist 14.9612
rhand 22.4777 -18.0787
rfingers 7.12502
rthumb 46.8359 -40.8168
lclavicle 3.65764e-014 -4.6118e-014
lhumerus -38.0062 -7.85149 85.0098
lradius 135.939
lwrist 4.81486
lhand 8.31394 39.0801
lfingers 7.12502
lthumb 33.5255 65.9679
rfemur -74.3235 -15.7326 15.5731
rtibia 102.077
rfoot -21.2792 -6.29312
rtoes -18.0241
lfemur -32.3078 12.2063 -33.3463
ltibia 58.5229
lfoot -31.2948 15.8946
ltoes -5.78176
